<svg width="1707" height="955" viewBox="0 0 1707 955" fill="none" xmlns="http://www.w3.org/2000/svg">
<path d="M740.578 18.7057H166.528C150.498 18.7057 137.14 32.0641 137.14 48.0943V113.551H464.059V933.758C464.059 940.437 468.067 953.795 490.776 953.795H558.904V136.26C560.24 124.237 569.591 113.551 582.949 113.551H657.756C688.481 113.551 703.175 100.192 708.518 88.1696L740.578 18.7057Z" fill="white"/>
<path d="M777.352 18.7057V933.758C778.687 940.437 782.695 953.795 805.404 953.795H873.532V56.1093C873.532 40.0792 862.845 18.7057 834.793 18.7057H777.352Z" fill="white"/>
<path d="M950.15 18.7033V933.755C950.15 940.434 954.158 953.792 976.867 953.792H1044.99V534.338H1102.44C1194.61 534.338 1238.69 468.882 1238.69 378.045V136.257C1238.69 70.8011 1181.25 18.7033 1117.13 18.7033H950.15ZM1146.52 399.418C1143.85 424.799 1122.47 444.837 1095.76 444.837H1044.99V108.205H1095.76C1122.47 108.205 1143.85 128.242 1146.52 153.623V399.418Z" fill="white"/>
<path d="M1606.47 609.144C1582.43 619.83 1545.02 635.861 1537.01 639.868C1524.98 646.547 1511.63 661.242 1511.63 691.966V817.535C1511.63 846.924 1487.92 869.633 1458.53 869.633C1430.48 869.633 1407.77 846.924 1407.77 817.535V134.92C1407.77 106.867 1430.48 84.158 1458.53 84.158C1487.92 84.158 1511.63 106.867 1511.63 134.92V344.647L1581.09 312.587C1593.11 307.244 1606.47 292.549 1606.47 261.825V118.89C1606.47 54.7695 1555.71 1.33582 1491.59 0H1431.81C1365.02 0 1311.59 53.4336 1311.59 118.89V834.901C1311.59 900.357 1365.02 953.791 1431.81 953.791H1491.59C1555.71 951.119 1606.47 899.021 1606.47 834.901V609.144Z" fill="white"/>
<path d="M380.379 953.349H273.847L189.689 427.473L105.531 953.349H0L141.599 136.26H193.697C233.772 136.26 240.451 161.641 244.459 187.022L363.472 863L365.968 871.5L380.379 953.349Z" fill="url(#paint0_linear_802_6)"/>
<path d="M1707 456C1707 511.781 1661.78 557 1606 557C1550.22 557 1505 511.781 1505 456C1505 400.219 1550.22 355 1606 355C1661.78 355 1707 400.219 1707 456Z" fill="url(#paint1_linear_802_6)"/>
<path d="M740.578 18.7057H166.528C150.498 18.7057 137.14 32.0641 137.14 48.0943V113.551H464.059V933.758C464.059 940.437 468.067 953.795 490.776 953.795H558.904V136.26C560.24 124.237 569.591 113.551 582.949 113.551H657.756C688.481 113.551 703.175 100.192 708.518 88.1696L740.578 18.7057Z" fill="white"/>
<path d="M777.352 18.7057V933.758C778.687 940.437 782.695 953.795 805.404 953.795H873.532V56.1093C873.532 40.0792 862.845 18.7057 834.793 18.7057H777.352Z" fill="white"/>
<path d="M950.15 18.7033V933.755C950.15 940.434 954.158 953.792 976.867 953.792H1044.99V534.338H1102.44C1194.61 534.338 1238.69 468.882 1238.69 378.045V136.257C1238.69 70.8011 1181.25 18.7033 1117.13 18.7033H950.15ZM1146.52 399.418C1143.85 424.799 1122.47 444.837 1095.76 444.837H1044.99V108.205H1095.76C1122.47 108.205 1143.85 128.242 1146.52 153.623V399.418Z" fill="white"/>
<path d="M1606.47 609.144C1582.43 619.83 1545.02 635.861 1537.01 639.868C1524.98 646.547 1511.63 661.242 1511.63 691.966V817.535C1511.63 846.924 1487.92 869.633 1458.53 869.633C1430.48 869.633 1407.77 846.924 1407.77 817.535V134.92C1407.77 106.867 1430.48 84.158 1458.53 84.158C1487.92 84.158 1511.63 106.867 1511.63 134.92V344.647L1581.09 312.587C1593.11 307.244 1606.47 292.549 1606.47 261.825V118.89C1606.47 54.7695 1555.71 1.33582 1491.59 0H1431.81C1365.02 0 1311.59 53.4336 1311.59 118.89V834.901C1311.59 900.357 1365.02 953.791 1431.81 953.791H1491.59C1555.71 951.119 1606.47 899.021 1606.47 834.901V609.144Z" fill="white"/>
<path d="M380.379 953.349H273.847L189.689 427.473L105.531 953.349H0L141.599 136.26H193.697C233.772 136.26 240.451 161.641 244.459 187.022L363.472 863L365.968 871.5L380.379 953.349Z" fill="url(#paint2_linear_802_6)"/>
<path d="M1707 456C1707 511.781 1661.78 557 1606 557C1550.22 557 1505 511.781 1505 456C1505 400.219 1550.22 355 1606 355C1661.78 355 1707 400.219 1707 456Z" fill="url(#paint3_linear_802_6)"/>
<defs>
<linearGradient id="paint0_linear_802_6" x1="-44.1279" y1="-382.208" x2="-44.1279" y2="1220.79" gradientUnits="userSpaceOnUse">
<stop offset="0.15625" stop-color="#0066FF"/>
<stop offset="0.567708" stop-color="#C400C8"/>
<stop offset="0.864583" stop-color="#FFC700"/>
</linearGradient>
<linearGradient id="paint1_linear_802_6" x1="1627" y1="287" x2="1606" y2="581.5" gradientUnits="userSpaceOnUse">
<stop stop-color="#2C00FF"/>
<stop offset="0.463542" stop-color="#CB19AF"/>
<stop offset="1" stop-color="#FFB800"/>
</linearGradient>
<linearGradient id="paint2_linear_802_6" x1="-44.1279" y1="-382.208" x2="-44.1279" y2="1220.79" gradientUnits="userSpaceOnUse">
<stop offset="0.15625" stop-color="#0066FF"/>
<stop offset="0.567708" stop-color="#C400C8"/>
<stop offset="0.864583" stop-color="#FFC700"/>
</linearGradient>
<linearGradient id="paint3_linear_802_6" x1="1627" y1="287" x2="1606" y2="581.5" gradientUnits="userSpaceOnUse">
<stop stop-color="#2C00FF"/>
<stop offset="0.463542" stop-color="#CB19AF"/>
<stop offset="1" stop-color="#FFB800"/>
</linearGradient>
</defs>
</svg>
