<svg width="1707" height="955" viewBox="0 0 1707 955" fill="none" xmlns="http://www.w3.org/2000/svg">
<g clip-path="url(#clip0_802_3)">
<path d="M384.174 954.087H276.58L191.582 422.42L106.584 954.087H0L143.012 128H195.629C236.104 128 242.85 153.66 246.898 179.321L367.098 862.742L369.62 871.336L384.174 954.087Z" fill="url(#paint0_linear_802_3)"/>
<path d="M545.893 396.666C545.893 453.061 500.222 498.779 443.885 498.779C387.548 498.779 341.877 453.061 341.877 396.666C341.877 340.271 387.548 294.554 443.885 294.554C500.222 294.554 545.893 340.271 545.893 396.666Z" fill="url(#paint1_linear_802_3)"/>
</g>
<defs>
<linearGradient id="paint0_linear_802_3" x1="-14.1119" y1="-203.032" x2="-14.1119" y2="1185.33" gradientUnits="userSpaceOnUse">
<stop offset="0.15625" stop-color="#0066FF"/>
<stop offset="0.567708" stop-color="#C400C8"/>
<stop offset="0.864583" stop-color="#FFC700"/>
</linearGradient>
<linearGradient id="paint1_linear_802_3" x1="1643.23" y1="280.4" x2="1621.98" y2="578.14" gradientUnits="userSpaceOnUse">
<stop stop-color="#2C00FF"/>
<stop offset="0.463542" stop-color="#CB19AF"/>
<stop offset="1" stop-color="#FFB800"/>
</linearGradient>
<clipPath id="clip0_802_3">
<rect width="1707" height="954.087" fill="white"/>
</clipPath>
</defs>
</svg>
